<?xml version="1.0" encoding="utf-8"?>
<!-- Generator: Adobe Illustrator 19.0.0, SVG Export Plug-In . SVG Version: 6.00 Build 0)  -->
<svg version="1.1" id="layer" xmlns="http://www.w3.org/2000/svg" xmlns:xlink="http://www.w3.org/1999/xlink" x="0px" y="0px"
	 viewBox="-153 -46 652 652" style="enable-background:new -153 -46 652 652;" xml:space="preserve">
<style type="text/css">
	.st0{fill:#00529B;}
	.st1{fill:#FFD200;}
	.st2{fill:#FAD703;}
	.st3{fill:#00477F;}
</style>
<path class="st0" d="M-39.7,249.8c0,0-25.7-36.4-27.1-38.1c-2-2.8-5-5.8-11.9-5.8h-52.8v26.6l8.9,3.8c0.7,0.2,1.2,0.9,1.1,1.7v27.2
	l-10.1,9.7l10.1,9.5v27.4c0.1,0.7-0.3,1.4-0.9,1.7c-0.6,0.5-9,5-9,5v25.5H-55v-26l-8.9-4.4c-0.7-0.2-1.2-0.9-1.1-1.7v-19.9
	l25.2,35.6l25.2-35.6V312c0.1,0.7-0.3,1.5-1.1,1.7l-8.9,4.4v26.2h76.5v-25.5c0,0-8.4-4.6-9-5c-0.6-0.3-1-1-0.9-1.7v-27.4l10.1-9.5
	l-10.1-9.8v-27.1c-0.1-0.7,0.3-1.5,1.1-1.7l8.9-3.8v-26.8H-0.7c-6.9,0-10.1,3.1-11.9,5.8C-14.1,213.4-39.7,249.8-39.7,249.8z
	 M45.4,337.7H19.3c-2-0.1-4-1-5.4-2.4c-2.6,2.1-4.1,2.4-5.4,2.4h-26.4v-16.3c2-0.6,9.9-1.7,9.9-9.3v-40.7l-32,45.1l-32-45.1V312
	c0,7.6,8,8.6,9.9,9.3v16.3H-88c-2-0.1-4-1-5.4-2.4c-2.6,2.1-4.1,2.4-5.4,2.4h-26.2v-16.4c2.9-0.9,9.9-1.7,9.9-9.2v-27.4
	c0.1-2-0.8-4-2.3-5.4l-5-4.1l5.2-4.4c1.5-1.3,2.4-3.3,2.3-5.4v-27.1c0-8.4-9.9-9.2-9.9-9.2v-16.6h23.9c1.7,0.2,3.3,0.9,4.6,2
	c1.5-1.1,3.3-1.8,5.2-2h12.4c2.7-0.2,5.3,1,6.9,3.2l32.3,45.5l32.3-45.4c0.6-0.9,1.4-1.7,2.4-2.1c1.4-0.7,2.9-1,4.4-1.1H12
	c1.9,0.2,3.7,0.9,5.2,2c1.4-1.3,3.3-2,5.2-2h23.2v16.4c0,0-9.9,0.8-9.9,9.2v27.2c-0.1,2,0.8,4,2.3,5.4l5.2,4.4l-4.9,4.3
	c-1.5,1.3-2.4,3.3-2.3,5.4v27.4c0,7.6,6.9,8.3,9.9,9.2L45.4,337.7z"/>
<path class="st1" d="M-39.7,307.1l37.3-52.8V312c0.1,6.2-4,11.7-9.9,13.5v6.9H8.5c1.2,0,5.4-4.4,5.4-4.4s4.1,4.4,5.4,4.4H40v-6.9
	c-6-1.8-10-7.3-9.9-13.5v-27.5l0,0c0.2-3.8,2.2-7.3,5.4-9.5c0,0-5.4-3.7-5.4-9.8l0,0v-27.4c-0.1-6.2,4-11.7,9.9-13.5v-6.9H22.1
	c-2,0.3-5.2,4.4-5.2,4.4s-3.1-4.4-5.2-4.4H-0.7c-0.9-0.2-1.9,0.2-2.4,0.9l-36.7,52l-36.7-51.8c-0.6-0.7-1.5-1.1-2.4-0.9h-12.4
	c-2,0.3-5.2,4.4-5.2,4.4s-3.1-4.4-5.2-4.4h-18v6.9c6,1.8,10,7.3,9.9,13.5v27.2l0,0c0,6.1-5.4,9.8-5.4,9.8c3.2,2.1,5.2,5.6,5.4,9.5
	l0,0v27.4c0.1,6.2-4,11.8-9.9,13.5v6.9h20.8c1.2,0,5.4-4.4,5.4-4.4s4.1,4.4,5.4,4.4h20.8v-6.9c-6-1.8-10-7.3-9.9-13.5v-57.9
	L-39.7,307.1z"/>
<path class="st2" d="M273.7,291.6c-2.6-2.6-1.4-4.4-0.6-5.2c1.2,2.8,2.8,2.8,4.7,4.3c4.1,3.4,1.8,5.7,0.2,6.7
	C276.9,293.1,276.3,294.4,273.7,291.6 M272.5,283c-3.5,2-12.1,8.6-6.7,14.2c4,4.3,8.9,2.6,9.6,1.4c1.8-2.9-0.5-4.7-2.6-6.3
	C269.4,290.2,269.6,288.7,272.5,283"/>
<path class="st3" d="M455.6,291.6c0,0.3-0.2,0.6-0.5,0.6L287.9,294l-3.1-2.4l3.1-2.4l167.4,1.8C455.5,291,455.6,291.3,455.6,291.6
	 M256.5,289L256.5,289l-167.2,1.8c-0.3,0.1-0.4,0.3-0.5,0.6c0,0.3,0.2,0.6,0.5,0.6l167.2,1.8l3.1-2.4L256.5,289z"/>
<path class="st3" d="M95.4,270.8H76V268h0.2c4.6,0,6.7-1.8,6.7-6.3v-35.3c0-4-1.8-5.5-7-5.7v-2.6h18.4l17,39.9l17.7-39.9h17.4v2.6
	c-5,0.2-7,1.7-7,5.7v35.8c0,4.1,1.8,5.7,7,5.7v2.8h-22.6v-2.8c5.4,0,7.3-1.5,7.3-5.7v-38.1l-20.3,46.5h-3.1l-19.9-46.2v37.5
	c0,4.4,1.8,6.1,7.5,6.3L95.4,270.8z M240.4,218h19.2v2.6c-4.7,0-7,2-7,6.4v44.7h-3.1l-37.9-44.4v34.7c0,4.3,2.1,6.3,6.9,6.3h0.6v2.8
	h-19.1v-2.8h0.3c4.6,0,6.7-1.8,6.7-6.3v-38.4c-1.9-1.9-4.4-2.9-7-2.9v-2.6h14.8l33.2,38.7v-30c0-4.3-2.3-6.4-7.5-6.4L240.4,218
	L240.4,218z M406.9,258.4c0-5-3.5-7.6-11-10.1l-6.3-2.1c-10.2-3.4-15-7.5-15-14.5c0-8.6,7.3-14.8,18.5-14.8c6.4,0,10.6,2.9,12.7,2.9
	c1.2,0,2.1-0.9,2.9-2.6h2.6l0.3,15.3h-2.4c-2.6-7.8-8.3-11.8-15.9-11.8c-7,0-11.2,3.5-11.2,8.4c0,4.1,3.2,6.6,10.2,8.9l7,2.3
	c10.9,3.5,16.1,7.8,16.1,15.4c0,9.3-8.3,16.4-20,16.4c-8.4,0-13.2-3.5-15.3-3.5c-1.4,0-2,0.9-2.8,3.1h-2.9l-0.9-17h2.8
	c3.8,9.2,9.8,13.6,18.2,13.6C401.8,268.4,406.9,263.9,406.9,258.4z M147.4,246.6c2.1-0.8,4.1-3.2,5.7-7.2l0,0c1-2.2,2.1-4.2,3.5-6.1
	c4.5-5.5,11.1-8.6,18.2-8.6c6.7,0,10.7,2.6,12.4,2.6c1.3-0.1,2.5-0.9,3.1-2.1h2.1l0.5,13.9h-2.4c-2.3-7.5-7.5-11.2-14.4-11.2
	c-9.8,0-16.7,7.6-16.7,20.3c0,12.1,7.3,19.7,17.3,19.7c6.3,0,11.2-2.9,15.4-8.7l2.8,1.7c-4.3,7.3-10.9,10.9-19.7,10.9
	c-5.7,0.2-11.3-1.7-15.8-5.4c-4.1-3.1-6.8-7.7-7.8-12.7l0,0C151,249.8,149.4,247.6,147.4,246.6z M310.6,270.8h-46.3V268
	c5-0.2,7-1.7,7-5.7v-35.9c0-4-1.8-5.5-7-5.7v-2.6h45.6v11.6h-3.1c-0.8-6.3-3.7-7.8-10.7-7.8H280v19.3h8.7c5.4,0,7.3-1.7,7.8-7.2h2.9
	v18.5h-2.9c-0.2-1.4-0.5-2.8-0.9-4.1c-1.1-2.3-2.9-3.1-6.6-3.1h-9.2v15.4c0,5,1.1,6.4,6.9,6.4h11.6c6.4,0,9.8-2.8,11.9-9.3h2.9
	L310.6,270.8z M364.2,270.8h-46.3V268c5-0.2,7-1.7,7-5.7v-35.9c0-4-1.8-5.5-7-5.7v-2.6h45.4v11.6h-3.1c-0.9-6.3-3.7-7.8-10.7-7.8
	h-16.1v19.3h8.7c1.8,0.1,3.6-0.3,5.2-1.2c1.5-1.1,2.1-2.9,2.4-6h3v18.5h-2.9c-0.6-5.4-2.3-7.3-7.5-7.3h-9.2v15.4
	c0,5,1.1,6.4,6.9,6.4h11.6c6.4,0,9.8-2.8,11.9-9.3h2.9L364.2,270.8z M468.4,257.6l-2.4,13h-46.5v-2.8c5-0.2,7-1.7,7-5.7v-35.8
	c0-4-1.8-5.5-7-5.7v-2.6H465v11.6h-3.1c-0.9-6.3-3.7-7.8-10.7-7.8h-15.9v19.3h8.7c5.4,0,7.3-1.7,7.8-7.2h2.9v18.5h-2.9
	c-0.6-5.4-2.3-7.3-7.5-7.3h-9.2v15.4c0,5,1.1,6.4,6.9,6.4h11.6c6.4,0,9.8-2.8,11.9-9.3L468.4,257.6z"/>
<path class="st3" d="M95.4,270.8H76V268h0.2c4.6,0,6.7-1.8,6.7-6.3v-35.3c0-4-1.8-5.5-7-5.7v-2.6h18.4l17,39.9l17.7-39.9h17.4v2.6
	c-5,0.2-7,1.7-7,5.7v35.8c0,4.1,1.8,5.7,7,5.7v2.8h-22.6v-2.8c5.4,0,7.3-1.5,7.3-5.7v-38.1l-20.3,46.5h-3.1l-19.9-46.2v37.5
	c0,4.4,1.8,6.1,7.5,6.3L95.4,270.8z M240.4,218h19.2v2.6c-4.7,0-7,2-7,6.4v44.7h-3.1l-37.9-44.4v34.7c0,4.3,2.1,6.3,6.9,6.3h0.6v2.8
	h-19.1v-2.8h0.3c4.6,0,6.7-1.8,6.7-6.3v-38.4c-1.9-1.9-4.4-2.9-7-2.9v-2.6h14.8l33.2,38.7v-30c0-4.3-2.3-6.4-7.5-6.4L240.4,218
	L240.4,218z M406.9,258.4c0-5-3.5-7.6-11-10.1l-6.3-2.1c-10.2-3.4-15-7.5-15-14.5c0-8.6,7.3-14.8,18.5-14.8c6.4,0,10.6,2.9,12.7,2.9
	c1.2,0,2.1-0.9,2.9-2.6h2.6l0.3,15.3h-2.4c-2.6-7.8-8.3-11.8-15.9-11.8c-7,0-11.2,3.5-11.2,8.4c0,4.1,3.2,6.6,10.2,8.9l7,2.3
	c10.9,3.5,16.1,7.8,16.1,15.4c0,9.3-8.3,16.4-20,16.4c-8.4,0-13.2-3.5-15.3-3.5c-1.4,0-2,0.9-2.8,3.1h-2.9l-0.9-17h2.8
	c3.8,9.2,9.8,13.6,18.2,13.6C401.8,268.4,406.9,263.9,406.9,258.4z M147.4,246.6c2.1-0.8,4.1-3.2,5.7-7.2l0,0c1-2.2,2.1-4.2,3.5-6.1
	c4.5-5.5,11.1-8.6,18.2-8.6c6.7,0,10.7,2.6,12.4,2.6c1.3-0.1,2.5-0.9,3.1-2.1h2.1l0.5,13.9h-2.4c-2.3-7.5-7.5-11.2-14.4-11.2
	c-9.8,0-16.7,7.6-16.7,20.3c0,12.1,7.3,19.7,17.3,19.7c6.3,0,11.2-2.9,15.4-8.7l2.8,1.7c-4.3,7.3-10.9,10.9-19.7,10.9
	c-5.7,0.2-11.3-1.7-15.8-5.4c-4.1-3.1-6.8-7.7-7.8-12.7l0,0C151,249.8,149.4,247.6,147.4,246.6z M310.6,270.8h-46.3V268
	c5-0.2,7-1.7,7-5.7v-35.9c0-4-1.8-5.5-7-5.7v-2.6h45.6v11.6h-3.1c-0.8-6.3-3.7-7.8-10.7-7.8H280v19.3h8.7c5.4,0,7.3-1.7,7.8-7.2h2.9
	v18.5h-2.9c-0.2-1.4-0.5-2.8-0.9-4.1c-1.1-2.3-2.9-3.1-6.6-3.1h-9.2v15.4c0,5,1.1,6.4,6.9,6.4h11.6c6.4,0,9.8-2.8,11.9-9.3h2.9
	L310.6,270.8z M364.2,270.8h-46.3V268c5-0.2,7-1.7,7-5.7v-35.9c0-4-1.8-5.5-7-5.7v-2.6h45.4v11.6h-3.1c-0.9-6.3-3.7-7.8-10.7-7.8
	h-16.1v19.3h8.7c1.8,0.1,3.6-0.3,5.2-1.2c1.5-1.1,2.1-2.9,2.4-6h3v18.5h-2.9c-0.6-5.4-2.3-7.3-7.5-7.3h-9.2v15.4
	c0,5,1.1,6.4,6.9,6.4h11.6c6.4,0,9.8-2.8,11.9-9.3h2.9L364.2,270.8z M468.4,257.6l-2.4,13h-46.5v-2.8c5-0.2,7-1.7,7-5.7v-35.8
	c0-4-1.8-5.5-7-5.7v-2.6H465v11.6h-3.1c-0.9-6.3-3.7-7.8-10.7-7.8h-15.9v19.3h8.7c5.4,0,7.3-1.7,7.8-7.2h2.9v18.5h-2.9
	c-0.6-5.4-2.3-7.3-7.5-7.3h-9.2v15.4c0,5,1.1,6.4,6.9,6.4h11.6c6.4,0,9.8-2.8,11.9-9.3L468.4,257.6z"/>
<path class="st3" d="M90.8,338.6h-1.2l-0.5-8.4h1.2c0.6,1.9,1.8,3.6,3.4,4.9c1.4,1.1,3.1,1.7,4.9,1.7c1.5,0,2.9-0.5,4.1-1.4
	c1-0.8,1.5-2.1,1.5-3.4c0-1-0.3-2-1.1-2.8c-1.1-0.9-2.4-1.7-3.8-2.1l-2.9-1.1c-1.9-0.6-3.7-1.6-5.2-2.9c-1-1.1-1.6-2.6-1.5-4.1
	c0-2,0.8-3.9,2.3-5.2c1.8-1.4,4-2.1,6.3-2c1.3,0,2.5,0.3,3.7,0.8c0.7,0.3,1.4,0.6,2.1,0.8c0.3,0,0.6-0.1,0.8-0.3
	c0.3-0.3,0.5-0.6,0.6-0.9h1.2v7.5h-1.2c-0.4-1.7-1.4-3.2-2.8-4.3c-1.3-1-2.9-1.6-4.6-1.5c-1.3,0-2.6,0.3-3.7,1.1
	c-0.9,0.7-1.4,1.8-1.4,2.9c0,0.9,0.4,1.8,1.1,2.4c1.1,0.9,2.3,1.5,3.7,1.8l3.2,1.2c2.1,0.6,4,1.7,5.7,3.1c1.1,1.2,1.7,2.7,1.7,4.3
	c0,2.2-0.9,4.3-2.6,5.7c-1.9,1.5-4.3,2.4-6.7,2.3c-1.6,0-3.1-0.3-4.6-0.9c-0.8-0.4-1.6-0.7-2.4-0.9c-0.3,0-0.6,0.1-0.8,0.3
	C91.1,337.7,90.9,337.9,90.8,338.6z M134.2,312.1l0.3,6.4h-1.4c-0.1-1.3-0.7-2.6-1.7-3.5c-1.2-0.8-2.6-1.1-4-0.9H125V334
	c-0.1,0.8,0.2,1.6,0.8,2.1c0.8,0.5,1.7,0.7,2.6,0.6v1.4h-10.9v-1.2c0.9,0,1.8-0.2,2.6-0.6c0.6-0.5,0.9-1.3,0.8-2.1v-20h-2.6
	c-1.4-0.2-2.8,0.2-4,0.9c-0.9,0.9-1.5,2.2-1.7,3.5h-1.2l0.3-6.4L134.2,312.1z M131.9,338.1v-1.4c0.8,0,1.5-0.3,2-0.9
	c0.7-0.6,1.2-1.4,1.5-2.3l9.9-21.4h1.5l9.6,21.3c0.3,1,0.9,1.8,1.7,2.4c0.7,0.5,1.6,0.7,2.4,0.8v1.4h-11.2v-1.4
	c0.8,0,1.6-0.2,2.3-0.6c0.4-0.3,0.7-0.7,0.8-1.2c0-0.3,0-0.6-0.2-0.9c-0.1-0.4-0.2-0.7-0.3-1.1l-1.5-3.4h-10.7l-1.4,3.4
	c-0.2,0.3-0.3,0.6-0.3,0.9c0,0.3-0.1,0.5-0.2,0.8c0,0.5,0.2,1,0.6,1.2c0.7,0.4,1.5,0.6,2.3,0.8v1.4h-9L131.9,338.1L131.9,338.1z
	 M140.6,327.4h8.9l-4.1-10.1L140.6,327.4z M180.7,312.1l0.3,6.4h-1.4c-0.1-1.3-0.7-2.6-1.7-3.5c-1.2-0.8-2.6-1.1-4-0.9h-2.6V334
	c-0.1,0.8,0.2,1.6,0.8,2.1c0.8,0.5,1.7,0.7,2.6,0.6v1.4h-10.9v-1.2c0.9,0,1.8-0.2,2.6-0.6c0.6-0.5,0.9-1.3,0.8-2.1v-20h-2.8
	c-1.4-0.1-2.8,0.2-4,0.9c-0.9,0.9-1.5,2.2-1.7,3.5h-1.4l0.3-6.4L180.7,312.1z M182.9,338.1v-1.4c0.9,0,1.7-0.2,2.4-0.6
	c0.5-0.6,0.7-1.4,0.8-2.1v-17.6c0.1-0.8-0.2-1.6-0.8-2.1c-0.7-0.5-1.6-0.7-2.4-0.6v-1.2H204v5.7h-1.4c0-1.1-0.5-2.2-1.4-2.9
	c-1.1-0.6-2.3-0.9-3.5-0.8h-7.5v9.5h4c0.9,0.1,1.9-0.1,2.6-0.8c0.6-0.8,0.9-1.8,0.9-2.8h1.2v9h-1.2c0-1-0.3-2-0.9-2.8
	c-0.6-0.6-1.6-0.9-2.4-0.8h-4.1v7.6c-0.1,0.9,0.1,1.7,0.6,2.4c0.8,0.4,1.7,0.6,2.6,0.6h5.4c1.2,0,2.4-0.3,3.4-1.1
	c0.9-0.9,1.6-2.1,2-3.4h1.4l-1.2,6.4L182.9,338.1L182.9,338.1z M239.7,316.5c0.1-0.8-0.2-1.7-0.8-2.3c-0.7-0.5-1.6-0.8-2.4-0.8h-0.2
	v-1.2h8.9v1.1c-0.9-0.1-1.8,0.2-2.4,0.8c-0.6,0.6-0.8,1.5-0.8,2.3V328c0.2,2.9-0.6,5.8-2.4,8.1c-2.2,1.8-5,2.8-7.8,2.6
	c-2.8,0.1-5.6-0.7-8-2.3c-1.9-1.9-2.8-4.5-2.6-7.2v-12.8c0.1-0.8-0.2-1.6-0.8-2.1c-0.7-0.5-1.6-0.7-2.4-0.8v-1.2h10.6v1.2
	c-0.9,0-1.8,0.2-2.6,0.6c-0.6,0.5-0.9,1.3-0.8,2.1v12.5c-0.1,2,0.5,4,1.7,5.7c1.4,1.4,3.4,2,5.4,1.8c2.1,0.1,4.1-0.6,5.7-2
	c1.4-1.8,2-4.1,1.8-6.4L239.7,316.5L239.7,316.5z M252.6,333.7c-0.1,0.8,0.2,1.7,0.8,2.3c0.7,0.5,1.5,0.7,2.3,0.8h0.3v1.4h-8.9v-1.4
	h0.2c0.8,0.1,1.7-0.2,2.3-0.8c0.6-0.6,0.8-1.5,0.8-2.3V315c-0.3-0.4-0.7-0.8-1.2-1.1c-0.6-0.3-1.2-0.5-1.8-0.5v-1.2h6.9l15.3,19
	v-14.5c0.1-0.8-0.2-1.7-0.8-2.3c-0.8-0.5-1.7-0.8-2.6-0.8v-1.2h9v0.9c-0.9-0.1-1.8,0.2-2.4,0.8c-0.6,0.6-0.8,1.5-0.8,2.3v21.9h-1.4
	l-17.7-21.7L252.6,333.7z M284.4,333.8c-0.1,0.8,0.2,1.6,0.8,2.1c0.8,0.5,1.7,0.7,2.6,0.6v1.2h-10.9v-1.4c0.9,0,1.8-0.2,2.6-0.6
	c0.5-0.6,0.8-1.4,0.8-2.1v-17.3c0.1-0.8-0.2-1.6-0.8-2.1c-0.8-0.5-1.7-0.7-2.6-0.6v-1.2h10.9v1.2c-0.9,0-1.8,0.2-2.6,0.6
	c-0.5,0.6-0.8,1.4-0.8,2.1V333.8z M309.5,317.3c0.2-0.3,0.3-0.6,0.3-0.9c0-0.3,0.2-0.5,0.2-0.8c0-0.6-0.3-1.1-0.8-1.5
	c-0.6-0.4-1.4-0.6-2.1-0.6v-1.2h9.1v1.1c-0.7,0.1-1.4,0.4-2,0.9c-0.7,0.6-1.2,1.4-1.5,2.3l-9.6,21.4h-1.5l-9.4-21.3
	c-0.3-0.9-0.9-1.7-1.5-2.3c-0.6-0.5-1.4-0.8-2.1-0.9v-1.2h11v1.2c-0.8,0-1.6,0.1-2.3,0.5c-0.4,0.3-0.7,0.7-0.8,1.2
	c0,0.3,0,0.6,0.2,0.9c0.1,0.4,0.2,0.7,0.3,1.1l6.6,15.4L309.5,317.3z M316.5,338.1v-1.4c0.9,0,1.7-0.2,2.4-0.6
	c0.5-0.6,0.7-1.4,0.8-2.1v-17.6c0.1-0.8-0.2-1.6-0.8-2.1c-0.7-0.5-1.6-0.7-2.4-0.6v-1.2h21v5.7h-1.4c0-1.1-0.5-2.2-1.4-2.9
	c-1.1-0.6-2.4-0.9-3.7-0.8h-7.6v9.5h4c0.9,0.1,1.9-0.1,2.6-0.8c0.6-0.8,0.9-1.8,0.9-2.8h1.4v9h-1.2c0-1-0.3-2-0.9-2.8
	c-0.6-0.6-1.6-0.9-2.4-0.8h-4.3v7.6c-0.1,0.9,0.1,1.7,0.6,2.4c0.7,0.4,1.6,0.6,2.4,0.6h5.4c1.2,0,2.4-0.3,3.4-1.1
	c0.9-0.9,1.6-2.1,2-3.4h1.4l-1.2,6.4L316.5,338.1z M352.9,312.1c2.8-0.1,5.5,0.4,8,1.7c1.8,1.1,2.7,3.1,2.6,5.2c0,1.5-0.6,2.9-1.7,4
	c-1.4,1.2-3.1,2-4.9,2.4l6,8.6c0.4,0.8,1.1,1.4,1.8,1.8c0.6,0.3,1.3,0.5,2,0.5v1.4h-6.1l-8.1-11.8h-3.8v7.8
	c-0.1,0.8,0.2,1.6,0.8,2.1c0.8,0.5,1.7,0.7,2.6,0.6h0.2v1.4h-10.9v-1.4c0.9,0,1.7-0.2,2.4-0.6c0.5-0.6,0.7-1.4,0.8-2.1v-17.3
	c0.1-0.8-0.2-1.6-0.8-2.1c-0.7-0.5-1.6-0.7-2.4-0.6v-1.2L352.9,312.1z M348.7,314.1v9.9h3.5c1.9,0.1,3.8-0.3,5.5-1.2
	c1.2-0.9,1.8-2.2,1.8-3.7c0.1-1.5-0.6-3-1.8-3.8c-1.7-0.9-3.7-1.4-5.7-1.2H348.7z M370.2,338.6h-1.4l-0.3-8.4h1.2
	c0.6,1.9,1.8,3.6,3.4,4.9c1.4,1.1,3.1,1.7,4.9,1.7c1.5,0,2.9-0.5,4.1-1.4c1-0.8,1.5-2.1,1.5-3.4c0-1-0.3-2-1.1-2.8
	c-1.1-0.9-2.4-1.7-3.8-2.1l-2.9-1.1c-2-0.6-3.8-1.6-5.4-2.9c-1-1.1-1.6-2.6-1.5-4.1c0-2,0.8-3.9,2.3-5.2c1.8-1.4,4-2.2,6.3-2
	c1.3,0,2.5,0.3,3.7,0.8c0.7,0.3,1.4,0.6,2.1,0.8c0.3,0,0.6-0.1,0.8-0.3c0.3-0.3,0.5-0.6,0.6-0.9h1.2l0.2,7.5H385
	c-0.4-1.7-1.4-3.2-2.8-4.3c-1.3-1-2.9-1.6-4.6-1.5c-1.3,0-2.6,0.3-3.7,1.1c-0.9,0.7-1.4,1.8-1.4,2.9c0,0.9,0.4,1.8,1.1,2.4
	c1.1,0.9,2.3,1.5,3.7,1.8l3.2,1.2c2.1,0.6,4,1.7,5.7,3.1c1.1,1.2,1.7,2.7,1.7,4.3c0,2.2-0.9,4.3-2.6,5.7c-1.9,1.5-4.3,2.4-6.7,2.3
	c-1.6,0-3.1-0.3-4.6-0.9c-0.8-0.4-1.6-0.7-2.4-0.9c-0.3,0-0.6,0.1-0.8,0.3C370.5,337.7,370.4,338.1,370.2,338.6z M398.7,333.8
	c-0.1,0.8,0.2,1.6,0.8,2.1c0.8,0.5,1.7,0.7,2.6,0.6v1.2h-10.9v-1.4c0.9,0,1.8-0.2,2.6-0.6c0.5-0.6,0.8-1.4,0.8-2.1v-17.3
	c0.1-0.8-0.2-1.6-0.8-2.1c-0.8-0.5-1.7-0.7-2.6-0.6v-1.2h10.9v1.2c-0.9,0-1.8,0.2-2.6,0.6c-0.5,0.6-0.8,1.4-0.8,2.1V333.8z
	 M426.6,312.1l0.3,6.4h-1.2c-0.1-1.3-0.7-2.6-1.7-3.5c-1.2-0.8-2.6-1.1-4-0.9h-2.6V334c-0.1,0.8,0.2,1.6,0.8,2.1
	c0.8,0.5,1.7,0.7,2.6,0.6v1.4H410v-1.2c0.9,0,1.8-0.2,2.6-0.6c0.6-0.5,0.9-1.3,0.8-2.1v-20h-2.6c-1.4-0.2-2.8,0.2-4,0.9
	c-0.9,0.9-1.5,2.2-1.7,3.5h-1.4l0.3-6.4L426.6,312.1z"/>
<path class="st3" d="M442.7,326.8v7.2c-0.1,0.8,0.2,1.6,0.8,2.1c0.8,0.5,1.7,0.7,2.6,0.6v1.4h-10.9v-1.4c0.9,0,1.8-0.2,2.6-0.6
	c0.6-0.5,0.9-1.3,0.8-2.1v-6.9l-7.5-9.8l-0.2-0.2c-0.9-1.7-2.5-2.9-4.3-3.5v-1.2h10.9v1.2c-0.7,0-1.3,0.1-2,0.3
	c-0.4,0.2-0.7,0.6-0.6,1.1c0,0.3,0.2,0.6,0.2,0.9c0.1,0.4,0.4,0.7,0.6,1.1l5.7,7.8l5.5-7.6c0.3-0.3,0.5-0.7,0.6-1.1
	c0.1-0.3,0.2-0.6,0.2-0.9c0-0.5-0.3-0.9-0.6-1.2c-0.6-0.3-1.3-0.5-2-0.5h-0.4v-1.2h9.5v1.1c-0.7,0.1-1.4,0.4-2,0.8
	c-0.9,0.7-1.6,1.5-2.1,2.4L442.7,326.8z"/>
</svg>
